<svg width="19" height="19" viewBox="0 0 19 19" fill="none" xmlns="http://www.w3.org/2000/svg">
<path d="M18.05 9.00013H1.8677L7.79 1.21513C7.82568 1.16818 7.85398 1.11245 7.87329 1.05111C7.8926 0.98977 7.90254 0.924026 7.90254 0.857632C7.90254 0.791238 7.8926 0.725494 7.87329 0.664154C7.85398 0.602815 7.82568 0.54708 7.79 0.500132C7.75432 0.453185 7.71196 0.415944 7.66534 0.390536C7.61873 0.365128 7.56876 0.352051 7.5183 0.352051C7.46784 0.352051 7.41788 0.365128 7.37126 0.390536C7.32464 0.415944 7.28228 0.453185 7.2466 0.500132L0.6821 9.14513C0.664125 9.16856 0.648193 9.19455 0.6346 9.22263C0.628209 9.23456 0.622493 9.2471 0.6175 9.26013L0.5985 9.31013L0.5871 9.36013C0.586008 9.37426 0.586008 9.3885 0.5871 9.40263C0.577374 9.467 0.577374 9.53326 0.5871 9.59763C0.586008 9.61176 0.586008 9.626 0.5871 9.64013L0.5985 9.69013L0.6175 9.74013C0.622493 9.75317 0.628209 9.7657 0.6346 9.77763C0.648193 9.80571 0.664125 9.8317 0.6821 9.85513L7.2466 18.5001C7.28199 18.5478 7.32425 18.5856 7.37091 18.6114C7.41757 18.6373 7.46768 18.6506 7.5183 18.6506C7.56892 18.6506 7.61903 18.6373 7.66569 18.6114C7.71235 18.5856 7.75461 18.5478 7.79 18.5001C7.82533 18.4537 7.85336 18.3986 7.87248 18.3379C7.89161 18.2772 7.90145 18.2121 7.90145 18.1464C7.90145 18.0807 7.89161 18.0156 7.87248 17.9549C7.85336 17.8942 7.82533 17.8391 7.79 17.7926L1.8677 10.0001H18.05C18.1508 10.0001 18.2474 9.94745 18.3187 9.85368C18.39 9.75992 18.43 9.63274 18.43 9.50013C18.43 9.36752 18.39 9.24035 18.3187 9.14658C18.2474 9.05281 18.1508 9.00013 18.05 9.00013Z" fill="black"/>
</svg>
