<svg width="18" height="18" viewBox="0 0 18 18" fill="none" xmlns="http://www.w3.org/2000/svg">
<path d="M8.55902 13.3092C8.27422 13.3092 7.99581 13.3937 7.759 13.5519C7.52219 13.7101 7.33762 13.935 7.22863 14.1981C7.11964 14.4613 7.09113 14.7508 7.14669 15.0301C7.20225 15.3095 7.3394 15.5661 7.54079 15.7674C7.74217 15.9688 7.99876 16.106 8.27809 16.1615C8.55742 16.2171 8.84696 16.1886 9.11009 16.0796C9.37321 15.9706 9.59811 15.786 9.75634 15.5492C9.91457 15.3124 9.99902 15.034 9.99902 14.7492C9.99902 14.3673 9.84731 14.001 9.57726 13.731C9.3072 13.4609 8.94093 13.3092 8.55902 13.3092ZM8.55902 15.4692C8.41662 15.4692 8.27741 15.427 8.15901 15.3479C8.04061 15.2687 7.94832 15.1563 7.89383 15.0247C7.83933 14.8932 7.82507 14.7484 7.85285 14.6087C7.88064 14.4691 7.94921 14.3408 8.0499 14.2401C8.1506 14.1394 8.27889 14.0708 8.41856 14.043C8.55822 14.0153 8.70299 14.0295 8.83455 14.084C8.96612 14.1385 9.07857 14.2308 9.15768 14.3492C9.23679 14.4676 9.27902 14.6068 9.27902 14.7492C9.2776 14.9392 9.20111 15.121 9.06624 15.2548C8.93137 15.3887 8.74905 15.4638 8.55902 15.4638V15.4692Z" fill="black"/>
<path d="M13.8277 13.3092C13.5429 13.3092 13.2645 13.3937 13.0277 13.5519C12.7909 13.7101 12.6063 13.935 12.4973 14.1981C12.3883 14.4613 12.3598 14.7508 12.4154 15.0301C12.4709 15.3095 12.6081 15.5661 12.8095 15.7674C13.0108 15.9688 13.2674 16.106 13.5468 16.1615C13.8261 16.2171 14.1156 16.1886 14.3788 16.0796C14.6419 15.9706 14.8668 15.786 15.025 15.5492C15.1832 15.3124 15.2677 15.034 15.2677 14.7492C15.2677 14.3673 15.116 14.001 14.8459 13.731C14.5759 13.4609 14.2096 13.3092 13.8277 13.3092ZM13.8277 15.4692C13.6853 15.4692 13.5461 15.427 13.4277 15.3479C13.3093 15.2687 13.217 15.1563 13.1625 15.0247C13.108 14.8932 13.0937 14.7484 13.1215 14.6087C13.1493 14.4691 13.2179 14.3408 13.3186 14.2401C13.4193 14.1394 13.5476 14.0708 13.6872 14.043C13.8269 14.0153 13.9717 14.0295 14.1032 14.084C14.2348 14.1385 14.3472 14.2308 14.4264 14.3492C14.5055 14.4676 14.5477 14.6068 14.5477 14.7492C14.5463 14.9392 14.4698 15.121 14.3349 15.2548C14.2 15.3887 14.0177 15.4638 13.8277 15.4638V15.4692Z" fill="black"/>
<path d="M15.975 11.115L17.4312 4.6134C17.4693 4.44341 17.4686 4.26704 17.4293 4.09733C17.39 3.92763 17.3131 3.76891 17.2042 3.63292C17.0954 3.49693 16.9574 3.38714 16.8004 3.31165C16.6434 3.23617 16.4714 3.19692 16.2972 3.1968H4.94464L4.72144 2.1042C4.70461 2.02166 4.65937 1.94764 4.59359 1.89502C4.52781 1.84239 4.44566 1.8145 4.36144 1.8162H0.900039C0.804561 1.8162 0.712994 1.85413 0.645481 1.92164C0.577968 1.98916 0.540039 2.08072 0.540039 2.1762C0.540039 2.27168 0.577968 2.36325 0.645481 2.43076C0.712994 2.49827 0.804561 2.5362 0.900039 2.5362H4.07524L4.29844 3.6288L5.82844 11.1078L6.17224 12.78C6.18907 12.8625 6.23431 12.9366 6.30009 12.9892C6.36587 13.0418 6.44802 13.0697 6.53224 13.068H16.5816C16.6771 13.068 16.7687 13.0301 16.8362 12.9626C16.9037 12.895 16.9416 12.8035 16.9416 12.708C16.9416 12.6125 16.9037 12.521 16.8362 12.4534C16.7687 12.3859 16.6771 12.348 16.5816 12.348H6.81844L6.62224 11.3922H15.6222C15.7037 11.3928 15.783 11.3656 15.8471 11.3153C15.9112 11.2649 15.9563 11.1943 15.975 11.115ZM6.48004 10.6758L5.09224 3.9168H16.2972C16.3638 3.91646 16.4295 3.93117 16.4895 3.95983C16.5495 3.98849 16.6023 4.03036 16.6439 4.0823C16.6854 4.13425 16.7147 4.19492 16.7295 4.25977C16.7442 4.32462 16.7442 4.39198 16.7292 4.4568L15.3342 10.6758H6.48004Z" fill="black"/>
</svg>
