<?xml version="1.0" standalone="no"?>
<!DOCTYPE svg PUBLIC "-//W3C//DTD SVG 20010904//EN"
 "http://www.w3.org/TR/2001/REC-SVG-20010904/DTD/svg10.dtd">
<svg version="1.0" xmlns="http://www.w3.org/2000/svg"
 width="640.000000pt" height="640.000000pt" viewBox="0 0 640.000000 640.000000"
 preserveAspectRatio="xMidYMid meet">
<metadata>
Created by potrace 1.14, written by Peter Selinger 2001-2017
</metadata>
<g transform="translate(0.000000,640.000000) scale(0.100000,-0.100000)"
fill="#000000" stroke="none">
<path d="M0 3206 l0 -2514 454 0 c334 0 456 3 458 11 2 7 3 928 3 2047 -1
1119 2 2040 6 2045 8 11 2104 13 2171 2 83 -15 178 -54 258 -108 164 -110 265
-267 300 -467 4 -23 7 -822 8 -1775 0 -953 1 -1737 1 -1744 1 -9 111 -12 456
-11 l455 0 0 62 c3 549 -2 3472 -5 3501 -2 22 -7 61 -9 88 -7 63 -38 193 -71
292 -29 89 -152 345 -166 345 -5 0 -9 4 -9 10 0 36 -239 304 -335 375 -22 16
-42 33 -45 36 -3 4 -41 30 -85 59 -137 89 -302 163 -463 206 -83 22 -80 22
-232 44 -30 5 -751 9 -1602 9 l-1548 1 0 -2514z"/>
<path d="M5489 5713 c-3 -22 -4 -5000 -1 -5010 3 -8 119 -11 458 -11 l454 0 0
2514 0 2514 -455 0 c-250 0 -456 -3 -456 -7z"/>
<path d="M1853 3892 c-22 -3 -23 -7 -23 -125 -1 -142 -1 -2798 0 -2964 l0
-112 455 1 455 0 1 21 c0 12 1 732 2 1599 l2 1578 -85 0 c-47 1 -242 2 -435 3
-192 1 -360 1 -372 -1z"/>
</g>
</svg>
