<svg width="38" height="24" viewBox="0 0 38 24" fill="none" xmlns="http://www.w3.org/2000/svg">
<path d="M35 0H3C1.34315 0 0 1.34315 0 3V21C0 22.6569 1.34315 24 3 24H35C36.6569 24 38 22.6569 38 21V3C38 1.34315 36.6569 0 35 0Z" fill="black" fill-opacity="0.07"/>
<path fill-rule="evenodd" clip-rule="evenodd" d="M35 1C36.1 1 37 1.9 37 3V21C37 22.1 36.1 23 35 23H3C1.9 23 1 22.1 1 21V3C1 1.9 1.9 1 3 1H35Z" fill="#3D95CE"/>
<path d="M24.675 8.3599C24.675 11.4239 22.118 15.4049 20.042 18.1999H15.302L13.4 6.5699L17.551 6.1679L18.556 14.4429C19.496 12.8769 20.655 10.4179 20.655 8.7409C20.655 7.8229 20.501 7.1979 20.261 6.6829L24.041 5.8999C24.478 6.6379 24.675 7.3989 24.675 8.3599Z" fill="white"/>
</svg>
